<?xml version="1.0" standalone="no"?>
<!DOCTYPE svg PUBLIC "-//W3C//DTD SVG 20010904//EN"
 "http://www.w3.org/TR/2001/REC-SVG-20010904/DTD/svg10.dtd">
<svg version="1.0" xmlns="http://www.w3.org/2000/svg"
 width="1280.000000pt" height="1256.000000pt" viewBox="0 0 1280.000000 1256.000000"
 preserveAspectRatio="xMidYMid meet">
<g transform="translate(0.000000,1256.000000) scale(0.100000,-0.100000)"
fill="#000000" stroke="none">
<path d="M7309 12556 c-2 -3 -48 -12 -100 -20 -248 -40 -455 -151 -640 -343
-136 -142 -228 -298 -286 -488 -26 -87 -27 -99 -28 -315 l0 -225 38 -109 c98
-284 233 -461 490 -644 92 -65 210 -132 236 -132 9 -1 27 -7 41 -15 31 -17 24
-20 -85 -36 -146 -21 -237 -56 -404 -158 -82 -50 -86 -51 -162 -51 -97 0 -142
16 -402 144 -105 52 -286 134 -402 181 -115 48 -298 126 -405 175 -296 133
-489 193 -680 212 -134 13 -199 6 -237 -25 -41 -33 -68 -43 -257 -92 -112 -30
-203 -61 -264 -90 -52 -25 -101 -45 -109 -45 -8 0 -27 -8 -41 -18 -15 -10 -54
-32 -87 -49 -54 -28 -93 -41 -265 -87 -42 -12 -66 -26 -100 -61 -43 -44 -170
-135 -190 -135 -15 0 -68 103 -80 154 -6 26 -19 64 -29 84 -10 21 -26 62 -36
92 -34 109 -76 178 -186 302 -59 68 -129 139 -156 160 -66 50 -203 133 -233
143 -14 4 -34 13 -45 20 -21 12 -91 30 -161 39 -22 3 -83 -1 -135 -9 -133 -21
-242 -76 -384 -195 -60 -51 -145 -120 -188 -153 -85 -66 -159 -157 -209 -257
-30 -60 -32 -74 -36 -185 -2 -66 1 -152 7 -190 7 -39 19 -113 27 -165 19 -124
30 -155 60 -175 33 -21 124 -116 124 -128 0 -6 -12 -25 -26 -44 -47 -62 -65
-115 -55 -167 11 -59 43 -95 94 -103 46 -7 54 -21 38 -72 -18 -61 8 -127 64
-169 27 -20 45 -41 45 -52 0 -11 15 -36 33 -56 26 -29 42 -37 79 -41 29 -3 55
-14 72 -30 30 -27 29 -26 15 -76 -13 -47 13 -136 52 -178 31 -33 75 -47 100
-30 10 6 27 11 36 11 37 0 121 63 251 189 172 165 333 182 438 47 28 -35 45
-71 53 -105 29 -137 -1 -564 -54 -746 -8 -27 -34 -80 -59 -118 -70 -107 -88
-169 -93 -327 -4 -120 0 -158 31 -340 19 -113 54 -276 77 -363 43 -157 43
-159 30 -230 -7 -40 -30 -173 -51 -297 -53 -306 -80 -427 -102 -455 -11 -14
-60 -40 -126 -65 -59 -24 -123 -50 -142 -60 -58 -29 -118 -104 -168 -208 l-47
-96 -9 -226 c-5 -124 -9 -434 -10 -690 l-2 -465 -31 -75 c-77 -187 -418 -833
-518 -983 -18 -27 -91 -99 -161 -161 -71 -62 -141 -126 -155 -142 -68 -74
-203 -267 -250 -358 -29 -56 -63 -115 -76 -132 -28 -38 -29 -81 -4 -131 14
-27 21 -70 26 -143 8 -125 11 -137 34 -145 10 -3 25 -23 34 -45 25 -65 50 -49
61 40 4 30 12 76 17 102 12 55 101 198 124 198 21 0 20 -3 -27 -91 l-42 -78
23 -98 c18 -77 30 -105 54 -131 56 -59 72 -40 80 97 5 79 11 104 40 165 41 84
69 116 102 116 21 0 25 -5 25 -32 0 -18 -7 -64 -16 -103 -8 -38 -23 -100 -31
-138 l-16 -67 27 -25 c15 -14 31 -25 36 -25 30 0 102 157 139 305 10 40 128
232 229 375 84 117 181 345 207 483 7 38 49 96 61 84 11 -11 36 -392 29 -452
-2 -27 -6 -183 -8 -345 -3 -232 -8 -328 -25 -451 -12 -86 -24 -164 -28 -173
-10 -27 -39 -36 -116 -36 -78 0 -138 -24 -138 -55 0 -22 27 -73 62 -117 48
-61 47 -87 -12 -228 -28 -69 -55 -135 -60 -147 -11 -26 -70 -65 -143 -94 -28
-11 -72 -31 -97 -44 -25 -14 -83 -40 -130 -59 -47 -19 -175 -71 -285 -116
-110 -45 -218 -90 -240 -100 -23 -11 -98 -25 -180 -35 -289 -34 -416 -64 -444
-103 -22 -31 -51 -134 -51 -180 0 -43 77 -119 163 -162 37 -18 67 -37 67 -41
0 -12 -32 -18 -110 -23 -95 -6 1076 2 2038 14 458 5 837 12 843 15 15 10 10
45 -7 52 -11 4 -13 13 -9 35 5 21 0 44 -19 81 -32 66 -79 225 -72 244 8 20
-22 228 -41 291 -21 70 -12 183 22 282 29 82 44 234 26 260 -17 25 -62 -7 -92
-65 -25 -49 -26 -50 -84 -59 -50 -7 -60 -6 -71 8 -19 26 -29 203 -28 481 1
240 11 370 45 558 23 128 26 162 18 179 -9 16 4 94 45 278 8 36 20 90 27 120
6 30 18 79 26 108 13 50 24 99 42 187 18 85 70 263 94 323 14 34 33 95 42 135
9 39 23 90 30 112 55 161 83 389 79 640 -4 257 -10 355 -24 393 -10 28 -10 36
4 51 57 63 745 180 834 141 17 -7 57 -55 107 -127 44 -63 85 -123 91 -132 74
-106 135 -212 144 -251 17 -73 27 -77 118 -53 42 11 187 48 322 82 135 34 265
68 290 76 76 24 390 103 482 122 104 21 106 20 164 -90 20 -40 70 -126 109
-192 40 -66 89 -153 110 -194 34 -69 37 -82 42 -185 3 -61 0 -149 -5 -196 -6
-47 -17 -129 -23 -182 -13 -102 -11 -133 26 -388 20 -143 13 -137 310 -244 50
-18 120 -47 158 -64 77 -36 97 -39 150 -28 25 6 42 4 52 -4 19 -16 156 -270
227 -420 30 -63 75 -147 100 -185 24 -39 73 -126 108 -193 43 -86 76 -137 108
-167 76 -73 201 -129 322 -145 100 -13 290 -48 377 -70 55 -14 137 -23 283
-30 113 -5 239 -12 280 -15 100 -8 455 -54 505 -65 22 -5 69 -10 105 -10 36 0
121 -7 190 -14 69 -8 163 -17 210 -21 47 -3 119 -10 160 -16 41 -5 183 -13
315 -18 177 -6 250 -13 277 -24 25 -10 71 -15 143 -16 59 0 114 -3 123 -5 10
-3 64 -12 122 -20 248 -35 342 -55 376 -81 18 -14 36 -25 39 -25 3 0 30 -11
58 -24 29 -12 75 -31 102 -40 28 -10 75 -30 105 -45 l55 -27 -2 -48 c-2 -73
-10 -91 -57 -145 -29 -33 -46 -62 -51 -88 -9 -58 -85 -184 -123 -208 -18 -11
-69 -43 -113 -72 -43 -28 -94 -55 -112 -58 -17 -4 -59 -22 -92 -40 -33 -18
-85 -40 -115 -50 -79 -26 -110 -61 -110 -123 0 -67 23 -139 56 -173 l28 -29
300 0 c303 0 698 15 826 31 30 4 -107 17 -188 18 -101 1 -103 11 -14 60 44 25
122 94 278 248 120 117 220 213 224 213 4 0 38 23 76 51 37 28 84 57 105 64
49 18 186 115 276 197 13 11 29 32 35 46 8 16 34 37 63 52 70 35 83 45 157
128 57 64 128 181 128 213 0 19 -100 106 -143 124 -23 10 -65 28 -92 41 -28
13 -55 24 -60 24 -6 0 -44 33 -85 73 -41 39 -114 100 -162 134 -77 55 -92 70
-130 139 -46 82 -126 184 -170 217 l-27 20 -58 -38 c-83 -55 -157 -128 -208
-207 -25 -37 -52 -68 -59 -68 -7 0 -30 7 -49 15 -20 8 -78 22 -131 30 -52 8
-111 21 -133 29 -21 7 -128 35 -238 60 -110 26 -258 63 -330 82 -169 44 -287
68 -465 93 -80 12 -188 33 -240 46 -187 49 -517 127 -645 151 -71 14 -152 33
-180 43 -87 33 -147 50 -255 75 -194 45 -268 52 -642 66 l-257 9 -58 31 c-55
30 -60 35 -90 108 -18 42 -42 118 -54 167 -12 50 -26 95 -31 102 -5 7 -11 50
-12 97 -1 65 -6 89 -19 104 -10 11 -20 37 -21 58 -2 22 -9 68 -15 104 -7 36
-18 106 -26 155 -8 50 -26 135 -40 190 -15 55 -30 121 -35 147 -5 27 -12 53
-16 60 -4 6 -11 28 -15 47 -13 58 -35 151 -54 221 -36 139 -46 178 -64 260
-11 47 -27 121 -36 165 -9 44 -23 104 -32 134 -8 29 -14 74 -12 100 1 25 -1
54 -6 65 -5 12 -2 28 8 46 15 24 15 29 2 40 -26 21 -18 82 15 126 28 37 29 45
30 130 0 80 4 102 34 175 39 98 80 266 96 395 12 99 7 394 -10 504 -5 36 -14
108 -19 161 -10 96 -30 162 -92 297 -16 34 -29 66 -29 71 0 20 -150 209 -210
264 -34 32 -88 91 -118 130 -30 40 -77 95 -103 122 -32 34 -54 69 -68 109 -19
54 -72 127 -151 206 -14 14 -54 68 -89 120 -69 101 -330 371 -432 447 -68 51
-101 87 -126 138 -129 265 -139 279 -354 500 -86 88 -168 178 -182 200 -45 69
-88 128 -145 199 -40 50 -64 92 -84 150 -15 44 -28 84 -28 89 0 13 66 37 104
37 19 0 63 -6 98 -14 35 -8 108 -19 163 -26 55 -6 129 -15 165 -20 36 -6 108
-15 160 -20 112 -11 336 -36 400 -45 25 -3 108 -10 185 -15 77 -5 174 -16 215
-25 111 -24 209 -16 291 25 74 37 186 109 238 151 108 88 176 139 266 197 55
36 109 74 120 83 66 57 111 95 123 104 8 6 24 19 37 31 12 11 34 29 47 40 14
10 85 66 158 124 165 131 208 160 241 160 15 0 51 13 80 29 93 49 132 69 201
100 68 32 158 116 181 171 6 14 20 38 31 54 22 32 45 144 45 222 1 57 -14 107
-61 204 -18 35 -35 83 -39 105 -4 22 -14 69 -23 105 -8 36 -17 81 -21 101 -6
40 -72 114 -136 155 -21 13 -40 32 -43 42 -4 10 0 51 9 91 31 149 12 311 -38
311 -12 0 -39 -20 -63 -45 -23 -25 -44 -45 -47 -45 -3 0 -33 46 -68 103 -43
70 -90 129 -149 188 -187 186 -366 278 -647 334 -110 22 -252 33 -264 21z
m-3726 -5287 c67 -22 133 -48 147 -57 37 -25 63 -40 85 -50 110 -52 158 -72
180 -78 15 -4 106 -60 204 -124 137 -92 191 -134 239 -188 34 -38 62 -72 62
-76 0 -13 -90 -50 -263 -108 -131 -44 -197 -61 -235 -61 -35 0 -55 -4 -59 -13
-3 -7 -30 -23 -60 -34 -50 -19 -62 -20 -110 -9 -55 13 -55 13 -84 -18 -29 -32
-76 -50 -189 -74 -30 -6 -81 -22 -114 -36 -32 -13 -62 -21 -67 -16 -4 4 5 78
20 163 26 140 39 249 71 580 5 58 10 127 10 154 0 49 13 86 31 86 6 0 66 -18
132 -41z m-703 -6072 c0 -50 -17 -117 -30 -117 -12 0 -24 103 -15 131 17 54
45 45 45 -14z"/>
</g>
</svg>
