<?xml version="1.0" standalone="no"?>
<!DOCTYPE svg PUBLIC "-//W3C//DTD SVG 20010904//EN"
 "http://www.w3.org/TR/2001/REC-SVG-20010904/DTD/svg10.dtd">
<svg version="1.0" xmlns="http://www.w3.org/2000/svg"
 width="1280.000000pt" height="1146.000000pt" viewBox="0 0 1280.000000 1146.000000"
 preserveAspectRatio="xMidYMid meet">
<metadata>
Created by potrace 1.15, written by Peter Selinger 2001-2017
</metadata>
<g transform="translate(0.000000,1146.000000) scale(0.100000,-0.100000)"
fill="#000000" stroke="none">
<path d="M6960 11449 c-104 -12 -173 -38 -295 -109 -27 -16 -73 -40 -101 -53
-46 -22 -159 -125 -191 -173 -51 -77 -73 -137 -83 -226 -13 -119 -38 -307 -50
-378 -5 -30 -12 -112 -15 -182 -4 -69 -13 -148 -21 -174 -8 -26 -17 -80 -20
-118 -4 -46 -13 -81 -25 -98 -10 -15 -19 -32 -19 -38 0 -5 -11 -10 -24 -10
-13 0 -34 -9 -48 -19 -25 -20 -133 -45 -150 -34 -6 3 -61 9 -122 14 -61 4
-158 13 -215 19 -105 11 -312 9 -366 -4 -16 -5 -44 -14 -62 -22 -17 -8 -38
-14 -46 -14 -8 0 -41 -13 -72 -30 -31 -16 -65 -30 -75 -30 -11 0 -21 -4 -25
-9 -3 -5 -20 -13 -38 -17 -52 -11 -184 -78 -247 -125 -19 -14 -40 -28 -46 -30
-16 -5 -242 -228 -277 -273 -16 -20 -37 -53 -47 -74 -10 -21 -26 -44 -34 -52
-9 -7 -16 -19 -16 -26 0 -8 -11 -19 -24 -24 -30 -11 -82 -87 -96 -139 -6 -22
-15 -43 -20 -46 -15 -9 -87 -121 -95 -147 -4 -13 -21 -39 -36 -59 -16 -20 -29
-40 -29 -43 0 -17 -89 -147 -127 -187 -24 -25 -52 -57 -61 -71 -9 -14 -40 -59
-68 -101 -49 -72 -73 -137 -89 -238 -3 -19 -23 -62 -44 -95 -52 -80 -106 -189
-122 -244 -7 -25 -23 -59 -35 -75 -29 -39 -56 -102 -109 -255 -53 -152 -62
-201 -70 -372 -4 -73 -13 -151 -20 -173 -8 -22 -19 -92 -24 -155 -6 -63 -15
-149 -21 -190 -16 -123 -50 -677 -57 -930 -7 -277 4 -406 46 -537 16 -50 35
-118 41 -150 19 -95 30 -134 38 -129 4 3 39 -13 77 -34 53 -30 73 -47 89 -79
45 -89 110 -183 136 -196 28 -15 90 -79 90 -94 0 -5 20 -15 45 -22 28 -8 47
-21 51 -32 3 -11 21 -33 40 -49 19 -17 34 -38 34 -49 0 -10 13 -33 28 -51 15
-18 33 -45 39 -60 8 -17 22 -28 42 -33 21 -4 48 -27 82 -66 29 -32 55 -56 60
-53 13 8 47 -54 54 -100 4 -23 13 -50 20 -62 45 -71 60 -270 36 -464 -18 -147
-8 -371 19 -435 11 -26 20 -53 20 -61 0 -14 33 -91 79 -182 9 -19 44 -63 79
-99 34 -36 62 -72 62 -80 0 -7 10 -17 23 -22 12 -5 46 -34 75 -65 29 -31 59
-56 66 -56 15 0 29 -27 22 -39 -5 -7 -122 7 -241 29 -70 13 -337 8 -470 -9
-49 -6 -115 -20 -145 -30 -30 -10 -71 -22 -90 -26 -19 -4 -56 -17 -81 -30 -25
-12 -83 -28 -128 -34 -45 -6 -90 -15 -101 -21 -10 -5 -55 -10 -100 -10 -51 0
-89 -5 -103 -14 -13 -8 -82 -18 -165 -25 -78 -7 -155 -16 -170 -21 -15 -5 -92
-11 -171 -14 -78 -4 -152 -11 -164 -17 -14 -8 -103 -10 -291 -7 -264 5 -272 6
-327 31 -44 20 -59 33 -67 56 -6 18 -22 35 -35 40 -13 5 -27 17 -30 25 -4 9
-13 16 -20 16 -8 0 -22 10 -33 21 -10 12 -77 60 -149 106 -71 47 -146 96 -165
109 -19 13 -67 46 -106 72 -38 27 -95 57 -125 67 -68 23 -214 32 -263 15 -44
-14 -109 -96 -165 -209 -22 -43 -47 -81 -55 -84 -9 -4 -16 -12 -16 -19 -1 -7
-9 -31 -20 -53 -11 -22 -19 -48 -20 -57 0 -9 -6 -21 -14 -25 -17 -10 -143
-292 -157 -352 -6 -25 -14 -98 -18 -161 -7 -112 -8 -117 -49 -184 -23 -37 -42
-70 -42 -73 0 -3 -14 -22 -31 -42 -56 -65 -110 -145 -115 -171 -3 -14 -18 -52
-34 -85 -75 -154 -99 -286 -100 -543 0 -221 14 -312 65 -417 44 -88 45 -90
105 -117 33 -16 71 -28 84 -28 13 0 26 -7 30 -15 7 -19 56 -20 81 -1 16 11 21
11 33 0 20 -21 61 -17 112 11 25 14 56 30 70 35 41 18 115 148 126 222 11 83
33 132 67 153 24 15 37 36 53 80 36 102 68 149 106 155 27 4 37 13 55 48 27
54 95 125 150 157 23 14 50 36 61 50 11 14 26 25 34 25 8 0 27 14 43 30 16 17
33 30 39 30 5 0 18 8 29 17 16 15 45 19 161 23 137 5 143 6 175 33 42 35 78
44 94 24 7 -8 29 -18 50 -21 20 -4 37 -13 37 -19 0 -7 13 -34 29 -60 17 -25
35 -65 41 -89 7 -24 23 -53 36 -66 13 -13 24 -28 24 -33 0 -6 6 -9 13 -6 6 2
35 -6 62 -18 29 -13 56 -19 65 -15 8 4 32 15 52 23 94 41 39 178 -118 293 -35
26 -64 50 -64 54 0 4 -10 11 -22 15 -18 6 -11 9 32 15 74 9 115 32 145 81 14
22 37 44 51 49 56 22 515 2 576 -24 21 -9 57 -16 80 -16 24 0 61 -5 83 -10
116 -29 195 -39 337 -44 86 -4 198 -13 250 -21 55 -8 264 -18 508 -25 452 -12
689 -25 704 -40 12 -12 393 -13 400 -1 3 4 29 9 58 9 29 1 85 5 123 11 39 5
111 15 160 21 50 7 104 14 122 16 18 3 46 16 62 30 17 14 38 27 49 29 31 5
186 168 204 212 3 10 7 33 7 52 1 19 13 59 27 89 33 69 42 198 25 349 -16 144
-35 209 -66 229 -22 14 -25 24 -26 73 0 31 -4 89 -8 129 -4 40 -5 75 -3 77 6
6 82 -46 82 -57 0 -5 12 -14 28 -21 15 -7 52 -38 82 -69 30 -32 61 -58 68 -58
7 0 15 -7 18 -15 4 -8 30 -22 60 -31 29 -8 56 -19 59 -24 9 -15 83 -49 122
-56 21 -3 52 -12 68 -19 68 -28 131 -34 285 -28 85 3 180 5 212 4 40 -1 67 4
94 18 21 12 48 21 59 21 11 1 31 7 45 15 14 8 34 15 45 15 11 1 45 14 75 30
30 16 66 35 80 42 14 6 46 27 71 45 26 18 51 33 56 33 6 0 74 65 151 146 100
102 142 152 142 168 0 13 9 35 20 49 11 14 20 30 20 36 0 7 7 14 15 17 8 4 15
13 15 21 0 8 9 47 21 86 11 40 26 95 34 122 9 32 16 134 20 280 6 220 5 232
-14 270 -12 21 -21 48 -21 60 0 22 -19 78 -38 112 -7 12 -12 27 -12 33 0 7 -8
24 -18 38 -11 15 -24 42 -30 60 -6 18 -27 52 -47 76 -19 24 -35 48 -35 54 0
12 -142 155 -187 188 -16 12 -47 31 -70 43 -23 11 -47 30 -53 40 -5 11 -27 25
-47 32 -21 6 -47 18 -58 25 -11 7 -70 29 -130 48 -114 36 -228 56 -320 56
l-54 0 -6 88 c-6 93 -8 227 -5 332 1 36 -2 193 -7 350 -7 225 -13 291 -25 315
-8 17 -21 55 -29 85 -7 30 -18 62 -24 70 -15 19 -18 126 -4 151 5 11 16 19 23
19 7 0 32 15 56 33 23 17 55 39 71 47 15 8 47 32 71 52 89 76 174 140 239 178
75 44 219 144 258 179 25 23 54 41 66 41 25 0 114 27 129 39 6 4 42 14 79 22
53 10 70 10 76 1 4 -7 25 -33 46 -58 39 -45 56 -70 74 -110 5 -12 23 -36 40
-55 17 -18 31 -39 31 -46 0 -7 20 -36 45 -65 215 -255 336 -359 535 -461 25
-12 63 -35 86 -49 22 -14 85 -49 140 -78 54 -28 113 -58 129 -67 17 -9 39 -21
50 -26 44 -22 102 -54 125 -69 14 -9 51 -27 83 -39 45 -17 63 -30 80 -60 22
-37 59 -69 121 -106 16 -10 37 -26 48 -36 10 -9 22 -17 27 -17 4 0 29 -18 54
-40 25 -22 48 -40 51 -40 4 0 42 -29 86 -65 44 -36 83 -65 87 -65 4 0 30 -24
58 -52 27 -29 75 -71 105 -93 30 -22 80 -65 111 -95 30 -30 79 -75 108 -100
79 -67 133 -122 165 -169 17 -22 33 -41 36 -41 14 0 160 -150 160 -164 0 -9
13 -25 29 -37 25 -19 29 -29 33 -83 5 -72 31 -112 153 -232 41 -40 75 -79 75
-86 0 -7 38 -49 85 -94 47 -46 85 -89 85 -97 0 -9 24 -45 52 -81 51 -64 54
-66 98 -66 40 0 49 -4 69 -31 12 -16 33 -35 46 -41 27 -12 61 1 144 53 52 33
329 313 361 364 12 19 47 58 79 87 64 59 93 97 109 146 7 19 25 49 42 68 16
19 30 41 30 49 0 8 16 32 35 52 19 20 35 42 35 49 0 15 52 55 115 87 52 27
325 296 325 320 0 7 14 26 30 42 17 16 30 36 30 46 0 9 22 44 49 78 28 34 55
78 62 98 6 20 20 50 29 67 10 17 21 46 25 63 4 18 11 35 16 39 26 16 73 140
96 254 26 130 26 161 4 230 -22 65 -33 80 -63 80 -9 0 -29 11 -43 24 -33 31
-135 66 -192 66 -67 0 -116 -25 -172 -90 -28 -32 -84 -92 -125 -133 -61 -62
-80 -76 -115 -82 -43 -7 -100 -53 -146 -118 -16 -23 -30 -30 -78 -36 -50 -7
-64 -14 -100 -49 -24 -23 -52 -42 -62 -42 -46 0 -93 -22 -137 -64 -44 -42 -52
-45 -145 -60 -54 -9 -121 -23 -149 -31 -53 -16 -102 -19 -128 -9 -13 5 -12 10
5 34 12 15 19 35 17 44 -5 29 -165 100 -305 136 -18 4 -49 22 -68 39 -20 17
-56 36 -80 42 -24 6 -50 17 -56 25 -18 21 -86 18 -106 -6 -16 -19 -17 -19 -47
9 -17 16 -67 62 -111 102 -177 163 -388 388 -435 467 -10 16 -36 42 -57 58
-61 46 -125 104 -171 158 -163 190 -786 791 -884 854 -15 9 -31 26 -36 37 -14
30 -106 141 -177 215 -182 189 -233 240 -243 240 -6 0 -13 8 -16 18 -4 9 -27
40 -52 67 -25 28 -62 70 -82 94 -93 111 -135 137 -262 157 -97 16 -395 -2
-440 -26 -10 -6 -29 -10 -42 -10 -13 0 -28 -4 -34 -9 -5 -4 -30 -11 -56 -14
-44 -6 -49 -4 -83 28 -19 19 -41 35 -49 35 -7 0 -20 7 -27 16 -14 16 -14 16
-169 -1 -72 -9 -88 11 -102 124 -9 74 -9 97 1 114 17 26 30 181 23 266 -4 50
-9 65 -23 68 -21 6 -26 31 -34 178 -8 131 -28 197 -111 358 -8 16 -14 32 -14
36 0 4 24 19 53 34 28 14 63 37 76 51 14 14 34 26 45 26 12 0 30 7 40 15 24
18 128 20 158 4 12 -7 44 -17 72 -24 28 -8 71 -21 96 -31 25 -9 81 -19 125
-21 72 -4 84 -2 115 19 48 32 80 84 80 127 0 61 10 82 41 88 16 3 41 19 55 36
22 26 25 37 20 69 -6 34 -4 38 15 38 44 0 59 18 59 70 0 60 7 80 29 80 28 0
158 67 165 85 10 28 7 95 -8 144 -20 63 -37 129 -43 169 -3 18 -9 35 -14 38
-5 3 -9 11 -9 18 0 21 86 120 130 151 55 38 63 69 38 147 -25 77 -50 141 -59
148 -4 3 -10 50 -14 105 l-7 100 31 29 c46 44 77 114 62 137 -6 11 -14 61 -18
111 -7 105 -26 148 -120 275 -66 90 -118 132 -252 206 -103 57 -128 68 -241
109 -128 46 -382 67 -560 47z m-1048 -6261 c5 -57 16 -132 23 -168 17 -87 73
-291 85 -312 6 -10 10 -35 10 -55 0 -21 9 -53 20 -71 11 -18 20 -41 20 -52 0
-10 5 -22 10 -25 6 -3 10 -17 10 -31 0 -24 44 -172 60 -205 5 -9 12 -33 15
-53 7 -32 5 -36 -14 -36 -12 0 -32 -7 -45 -15 -22 -15 -26 -14 -53 12 -30 29
-73 96 -73 115 0 5 -11 24 -25 42 -14 17 -29 36 -33 41 -24 30 -33 101 -57
460 -30 461 -30 417 -5 448 16 20 26 25 33 18 6 -6 14 -56 19 -113z"/>
</g>
</svg>
